<svg xmlns="http://www.w3.org/2000/svg" viewBox="0 0 150 49.898">
  <path d="M16.662 0s-.47-.035-.772.396c-.3.43-.126.86-.126.86l3.787 9.415s.07.15.2.28c.13.14.27.23.27.23l4.64 2.35s.16.08.36.08c.21.01.42-.09.42-.09l4.61-2.33s.15-.07.29-.22c.14-.15.19-.29.19-.29l3.78-9.41s.18-.43-.12-.86-.76-.39-.76-.39H16.67zm-2.83 1.023c-.404.006-.627.275-.627.275l-11.84 11.84s-.36.307-.267.825c.09.517.518.696.518.696l9.336 3.98s.148.05.332.06c.184.01.35-.03.35-.03l4.943-1.62s.16-.06.307-.2c.15-.15.233-.36.233-.36l1.61-4.91s.053-.16.042-.36c-.01-.2-.08-.34-.08-.34l-3.98-9.33s-.18-.44-.7-.53c-.07-.01-.13-.02-.19-.02zm22.3 0c-.058 0-.12.004-.185.015-.52.092-.7.526-.7.526l-3.98 9.326s-.062.135-.073.334c-.01.2.043.36.043.36l1.61 4.91s.084.217.233.36c.148.143.307.2.307.2l4.94 1.617s.17.04.353.04c.184-.01.332-.06.332-.06l9.336-3.98s.426-.18.518-.69c.092-.52-.266-.82-.266-.82L36.76 1.3s-.224-.27-.63-.275zM.986 15.637c-.162-.007-.38.023-.595.174-.43.31-.39.76-.39.76v16.75s-.03.47.4.78c.43.3.86.13.86.13l9.42-3.78s.15-.06.28-.19c.14-.12.23-.27.23-.27l2.35-4.64s.08-.15.08-.35c.01-.2-.09-.42-.09-.42l-2.33-4.61s-.07-.15-.22-.28c-.15-.13-.29-.18-.29-.18l-9.41-3.78s-.1-.04-.27-.05zm47.933 0c-.17.007-.27.053-.27.053l-9.41 3.78s-.14.05-.29.184c-.15.133-.23.285-.23.285l-2.34 4.61s-.1.21-.09.41c0 .2.08.36.08.36l2.35 4.64s.09.14.22.27c.13.12.28.19.28.19l9.41 3.79s.43.17.86-.13c.43-.3.39-.77.39-.77V16.57s.04-.455-.39-.76c-.22-.15-.44-.18-.6-.173zm41.56.255c-.19 0-.39.008-.62.026-.23.016-.43.04-.62.074v15.12c0 .672.09 1.235.27 1.688.18.454.43.816.75 1.084.32.268.69.462 1.11.58.42.117.87.176 1.36.176.28 0 .59-.013.93-.038.33-.026.62-.08.85-.164 0-.69-.08-1.327-.23-1.915-.14.034-.3.06-.5.075-.19.017-.37.026-.52.026-.22 0-.42-.02-.62-.064-.2-.04-.36-.134-.51-.276-.14-.143-.26-.35-.34-.618-.08-.27-.13-.638-.13-1.108V15.992c-.19-.033-.39-.058-.62-.074-.23-.017-.44-.026-.62-.026zm33.71 0c-.17 0-.37.008-.61.026-.24.016-.45.04-.63.074v5.62c-.34-.1-.73-.186-1.17-.253-.45-.07-.89-.1-1.33-.1-.98 0-1.86.16-2.66.5-.8.33-1.49.81-2.06 1.42-.57.61-1.02 1.35-1.33 2.2-.31.85-.47 1.8-.47 2.84 0 1.21.18 2.22.53 3.05.35.82.83 1.49 1.43 2.01.6.52 1.31.89 2.13 1.12.81.22 1.67.34 2.58.34.97 0 1.85-.07 2.64-.19.79-.13 1.5-.28 2.14-.47v-18.1c-.19-.04-.39-.06-.62-.08-.23-.02-.43-.03-.62-.03zm-14.09.15c-.19 0-.41.008-.66.025-.25.018-.49.043-.71.076-.04.185-.06.396-.07.63-.01.236-.02.446-.02.63 0 .186 0 .395.01.63 0 .237.02.454.06.656.21.03.45.06.7.07.25.01.48.02.68.02.18 0 .4-.01.64-.03.24-.02.46-.04.67-.08.03-.21.05-.42.06-.66.01-.24.01-.45.01-.63 0-.19-.01-.4-.01-.63s-.03-.45-.07-.63c-.2-.04-.43-.06-.68-.08-.25-.02-.47-.03-.66-.03zm-45.24.203c-.22 0-.44.008-.66.025-.22.018-.43.043-.63.076v18.118c.18.033.38.058.6.076.22.015.44.024.68.024.22 0 .44-.008.66-.024.22-.018.43-.043.63-.076V16.346c-.2-.033-.42-.058-.63-.076-.22-.016-.44-.025-.66-.025zm9.17 0c-.19 0-.39.008-.62.025-.23.018-.46.043-.7.076l-5.82 8.92 6.43 9.198c.25.034.49.06.73.076s.45.025.65.025c.23 0 .48-.008.74-.025s.52-.042.79-.076l-6.47-9.424 5.74-8.694c-.27-.033-.53-.058-.78-.076-.26-.016-.49-.025-.71-.025zm71.99 4.99c-1.58 0-2.78.335-3.59 1.007-.82.672-1.23 1.58-1.23 2.72 0 .86.24 1.54.73 2.042.49.505 1.27.957 2.34 1.362l.88.328c.31.1.61.206.89.314.27.11.52.24.73.392.21.15.38.337.5.554.12.22.19.495.19.83 0 .303-.08.577-.24.82-.16.244-.37.45-.63.618-.26.168-.57.293-.92.377-.36.08-.73.12-1.11.12-.54 0-1.08-.06-1.63-.17-.55-.11-1.05-.26-1.5-.44-.14.33-.26.67-.37 1.02-.11.34-.18.68-.22 1.02.52.18 1.08.33 1.69.44.61.11 1.31.16 2.12.16.79 0 1.51-.1 2.17-.3.65-.2 1.21-.49 1.67-.85.46-.36.82-.8 1.07-1.31.254-.52.38-1.08.38-1.7 0-.56-.08-1.03-.24-1.43-.16-.4-.37-.73-.63-1.01s-.57-.51-.93-.69c-.36-.19-.74-.35-1.147-.48l-1.11-.38c-.31-.1-.59-.2-.85-.31-.26-.1-.498-.22-.7-.37-.2-.14-.36-.31-.48-.52-.114-.2-.173-.45-.173-.73 0-.56.24-.94.72-1.16.48-.22 1.03-.33 1.65-.33.59 0 1.14.06 1.65.19.513.12.955.25 1.324.39.135-.29.25-.6.34-.93.09-.34.156-.67.19-1.01-.47-.17-1.02-.32-1.65-.44-.63-.13-1.273-.19-1.93-.19zm-64.51 0c-.64 0-1.31.05-1.99.15-.69.102-1.32.245-1.89.43 0 .772.15 1.435.47 1.99.49-.152.99-.273 1.5-.366.51-.1 1.06-.14 1.65-.14.96 0 1.69.19 2.19.58.5.38.75 1.07.75 2.06v.48c-.24-.04-.53-.07-.87-.09-.35-.03-.79-.04-1.32-.04-.73 0-1.42.08-2.07.26-.66.17-1.24.44-1.74.8-.51.36-.91.81-1.2 1.36-.3.54-.45 1.18-.45 1.9 0 .74.13 1.37.38 1.89.25.52.61.95 1.07 1.28.46.34 1.02.58 1.69.73.66.15 1.41.23 2.23.23.87 0 1.73-.07 2.57-.22.84-.14 1.55-.28 2.14-.42v-8.09c0-1.68-.44-2.9-1.31-3.67-.87-.77-2.15-1.15-3.83-1.15zm19.45 0c-1.05 0-1.95.18-2.71.542-.77.36-1.4.848-1.9 1.46-.51.615-.88 1.338-1.12 2.17-.25.83-.37 1.724-.37 2.682 0 .97.12 1.86.37 2.68.25.81.65 1.52 1.19 2.11.54.59 1.24 1.05 2.08 1.38.84.32 1.84.49 3.02.49.8 0 1.54-.06 2.2-.18.66-.12 1.27-.3 1.83-.53-.02-.35-.07-.71-.15-1.07-.08-.36-.19-.67-.33-.92-1.08.42-2.21.63-3.4.63-1.36 0-2.39-.33-3.09-.99-.7-.66-1.06-1.69-1.1-3.1h8.79l.05-.67c.01-.26.02-.51.02-.74 0-.86-.12-1.65-.36-2.38-.24-.74-.58-1.37-1.03-1.89-.46-.53-1.02-.95-1.69-1.25-.67-.31-1.45-.46-2.34-.46zm32.55 0c-1.01 0-1.89.176-2.65.53-.76.352-1.39.83-1.89 1.436-.5.61-.88 1.32-1.12 2.15-.25.83-.37 1.72-.37 2.67 0 .96.12 1.85.37 2.67.24.83.61 1.54 1.12 2.14.5.61 1.13 1.08 1.89 1.43.75.35 1.64.52 2.64.52s1.89-.17 2.64-.51c.75-.34 1.38-.82 1.89-1.42.5-.6.88-1.31 1.12-2.14.24-.82.36-1.71.36-2.67s-.12-1.85-.36-2.67c-.24-.82-.62-1.53-1.12-2.14-.51-.6-1.14-1.08-1.89-1.44-.76-.35-1.64-.53-2.65-.53zm-25.88.302c-.03.135-.06.29-.08.465-.02.177-.03.35-.03.518 0 .168 0 .34.02.516.01.177.04.332.07.467h1.63v10.96c.18.034.39.06.62.077.22.015.42.025.59.025.18 0 .39-.008.61-.025.23-.018.43-.043.62-.076V21.537h-4.08zm-6.75 1.688c.52 0 .97.097 1.35.29.38.193.69.45.93.768.24.32.43.693.55 1.122.12.428.19.877.19 1.347h-6.37c.11-1.108.45-1.972.99-2.594.54-.62 1.33-.933 2.35-.933zm32.63.05c1.16 0 2.01.416 2.57 1.248.55.832.83 1.995.83 3.49 0 1.496-.28 2.663-.83 3.503-.56.84-1.41 1.26-2.57 1.26s-2.02-.42-2.56-1.26c-.55-.84-.82-2.007-.82-3.503s.27-2.66.82-3.49c.54-.832 1.4-1.248 2.56-1.248zm-12.93.052c.45 0 .87.033 1.25.1.39.067.75.167 1.09.303v8.72c-.29.083-.61.146-.98.187-.37.042-.78.063-1.21.063-1.28 0-2.29-.344-3.03-1.033-.74-.688-1.12-1.83-1.14-3.427 0-.704.08-1.356.24-1.952.16-.597.4-1.113.73-1.55.32-.437.74-.782 1.24-1.034.5-.25 1.1-.377 1.79-.377zm-38.3 4.913c.26 0 .59.018.98.05.38.034.7.068.96.1v4.11c-.32.084-.69.146-1.1.188-.41.042-.81.062-1.2.062-.31 0-.62-.016-.96-.05-.34-.033-.65-.126-.92-.277-.28-.15-.51-.37-.7-.656-.19-.285-.28-.68-.28-1.183 0-.79.27-1.378.82-1.765.54-.39 1.34-.58 2.38-.58zm-71.01 3c-.19.01-.33.063-.33.063l-9.34 3.98s-.43.18-.52.697c-.1.517.26.824.26.824l11.84 11.84s.29.352.81.26c.52-.09.7-.526.7-.526l3.98-9.326s.06-.135.07-.334c.01-.2-.05-.36-.05-.36l-1.61-4.91s-.09-.217-.24-.36-.31-.2-.31-.2L11.6 31.27s-.17-.033-.35-.03zm27.39 0c-.19-.008-.36.03-.36.03l-4.94 1.62s-.16.055-.31.198c-.15.143-.24.36-.24.36l-1.61 4.91s-.055.16-.045.36c.01.2.074.334.074.334l3.98 9.326s.18.435.7.526c.52.092.81-.26.81-.26l11.85-11.84s.36-.306.267-.823c-.09-.51-.52-.69-.52-.69L39 31.31s-.147-.05-.33-.06zM25 36.295c-.205.004-.357.077-.357.077l-4.64 2.35s-.145.09-.27.227c-.123.13-.19.27-.19.27l-3.787 9.41s-.177.43.124.86c.3.43.77.39.77.39H33.4s.456.04.76-.39c.302-.44.12-.87.12-.87l-3.78-9.41s-.05-.14-.184-.29c-.132-.15-.284-.23-.284-.23l-4.61-2.34s-.212-.09-.42-.09z"/>
</svg>
