<?xml version="1.0" encoding="UTF-8" standalone="no"?>
<!-- Created with Inkscape (http://www.inkscape.org/) -->

<svg
   xmlns:dc="http://purl.org/dc/elements/1.1/"
   xmlns:cc="http://creativecommons.org/ns#"
   xmlns:rdf="http://www.w3.org/1999/02/22-rdf-syntax-ns#"
   xmlns:svg="http://www.w3.org/2000/svg"
   xmlns="http://www.w3.org/2000/svg"
   xmlns:xlink="http://www.w3.org/1999/xlink"
   xmlns:sodipodi="http://sodipodi.sourceforge.net/DTD/sodipodi-0.dtd"
   xmlns:inkscape="http://www.inkscape.org/namespaces/inkscape"
   width="25.517153mm"
   height="99.624191mm"
   viewBox="0 0 90.415108 352.9991"
   id="svg26829"
   version="1.1"
   inkscape:version="0.91 r13725"
   sodipodi:docname="lines1.svg">
  <defs
     id="defs26831">
    <linearGradient
       gradientTransform="translate(-989.70755,-140.19398)"
       inkscape:collect="always"
       xlink:href="#linearGradient57295"
       id="linearGradient57289"
       x1="184.5"
       y1="305.55618"
       x2="283.91513"
       y2="537.55621"
       gradientUnits="userSpaceOnUse" />
    <linearGradient
       inkscape:collect="always"
       id="linearGradient57295">
      <stop
         style="stop-color:#3d2edd;stop-opacity:0.94117647"
         offset="0"
         id="stop57291" />
      <stop
         style="stop-color:#7320b9;stop-opacity:1"
         offset="1"
         id="stop57293" />
    </linearGradient>
  </defs>
  <sodipodi:namedview
     id="base"
     pagecolor="#ffffff"
     bordercolor="#666666"
     borderopacity="1.0"
     inkscape:pageopacity="0.0"
     inkscape:pageshadow="2"
     inkscape:zoom="0.35"
     inkscape:cx="428.77898"
     inkscape:cy="-83.500455"
     inkscape:document-units="px"
     inkscape:current-layer="layer1"
     showgrid="false"
     fit-margin-top="0"
     fit-margin-left="0"
     fit-margin-right="0"
     fit-margin-bottom="0"
     inkscape:window-width="1920"
     inkscape:window-height="1056"
     inkscape:window-x="0"
     inkscape:window-y="24"
     inkscape:window-maximized="1" />
  <metadata
     id="metadata26834">
    <rdf:RDF>
      <cc:Work
         rdf:about="">
        <dc:format>image/svg+xml</dc:format>
        <dc:type
           rdf:resource="http://purl.org/dc/dcmitype/StillImage" />
        <dc:title></dc:title>
      </cc:Work>
    </rdf:RDF>
  </metadata>
  <g
     inkscape:label="Capa 1"
     inkscape:groupmode="layer"
     id="layer1"
     transform="translate(845.20755,-95.86266)">
    <path
       inkscape:connector-curvature="0"
       style="color:#000000;font-style:normal;font-variant:normal;font-weight:normal;font-stretch:normal;font-size:medium;line-height:normal;font-family:sans-serif;text-indent:0;text-align:start;text-decoration:none;text-decoration-line:none;text-decoration-style:solid;text-decoration-color:#000000;letter-spacing:normal;word-spacing:normal;text-transform:none;direction:ltr;writing-mode:lr-tb;baseline-shift:baseline;text-anchor:start;white-space:normal;clip-rule:nonzero;display:inline;overflow:visible;visibility:visible;opacity:1;isolation:auto;mix-blend-mode:normal;color-interpolation:sRGB;color-interpolation-filters:linearRGB;solid-color:#000000;solid-opacity:1;fill:url(#linearGradient57289);fill-opacity:1;fill-rule:evenodd;stroke:none;stroke-width:0.99999994;stroke-linecap:butt;stroke-linejoin:miter;stroke-miterlimit:4;stroke-dasharray:none;stroke-dashoffset:0;stroke-opacity:1;color-rendering:auto;image-rendering:auto;shape-rendering:auto;text-rendering:auto;enable-background:accumulate"
       d="m -817.76419,95.86266 c -1.02389,0 -2.04748,0.39123 -2.82813,1.17188 -1.43976,1.43976 -1.53399,3.69705 -0.31835,5.26562 l -24.29688,24.30274 0,127.41015 23.41016,23.41016 c -1.21662,1.56861 -1.12177,3.82745 0.31836,5.26758 1.56129,1.56128 4.09495,1.56128 5.65625,0 1.56128,-1.56129 1.56129,-4.09497 0,-5.65625 -1.43977,-1.43977 -3.69706,-1.53399 -5.26563,-0.31836 l -23.12305,-23.11524 0,-126.58594 24.00782,-24.00781 c 1.56865,1.21742 3.82714,1.12402 5.26757,-0.3164 1.56129,-1.5613 1.56129,-4.09496 0,-5.65625 -0.78064,-0.78065 -1.80423,-1.17188 -2.82812,-1.17188 z m 5.97266,125 c -1.0239,0 -2.04748,0.39123 -2.82813,1.17188 -1.56129,1.56129 -1.56129,4.09495 0,5.65625 1.44013,1.44013 3.69896,1.53497 5.26758,0.31835 l 23.11914,23.11915 0,167 24.29492,24.29492 c -1.21661,1.56861 -1.12177,3.82745 0.31836,5.26758 1.56129,1.56128 4.09496,1.56128 5.65625,0 1.56129,-1.56129 1.56129,-4.09497 0,-5.65625 -1.43977,-1.43977 -3.69705,-1.53399 -5.26562,-0.31836 l -24.00782,-24.00196 0,-167 -23.41015,-23.41015 c 1.21889,-1.56872 1.12457,-3.82855 -0.31641,-5.26953 -0.78065,-0.78065 -1.80423,-1.17188 -2.82812,-1.17188 z"
       id="path4549" />
  </g>
</svg>
