<?xml version="1.0" encoding="UTF-8" standalone="no"?>
<!-- Created with Inkscape (http://www.inkscape.org/) -->

<svg
   xmlns:dc="http://purl.org/dc/elements/1.1/"
   xmlns:cc="http://creativecommons.org/ns#"
   xmlns:rdf="http://www.w3.org/1999/02/22-rdf-syntax-ns#"
   xmlns:svg="http://www.w3.org/2000/svg"
   xmlns="http://www.w3.org/2000/svg"
   xmlns:xlink="http://www.w3.org/1999/xlink"
   xmlns:sodipodi="http://sodipodi.sourceforge.net/DTD/sodipodi-0.dtd"
   xmlns:inkscape="http://www.inkscape.org/namespaces/inkscape"
   width="30.470631mm"
   height="130.38641mm"
   viewBox="0 0 107.9668 461.9991"
   id="svg26829"
   version="1.1"
   inkscape:version="0.91 r13725"
   sodipodi:docname="lines2.svg">
  <defs
     id="defs26831">
    <linearGradient
       gradientTransform="translate(-944.83766,-709.05156)"
       inkscape:collect="always"
       xlink:href="#linearGradient58350"
       id="linearGradient58344"
       x1="1441.4286"
       y1="499"
       x2="1465"
       y2="811"
       gradientUnits="userSpaceOnUse" />
    <linearGradient
       inkscape:collect="always"
       id="linearGradient58350">
      <stop
         style="stop-color:#6255e9;stop-opacity:0.94117647"
         offset="0"
         id="stop58346" />
      <stop
         style="stop-color:#9946df;stop-opacity:1"
         offset="1"
         id="stop58348" />
    </linearGradient>
  </defs>
  <sodipodi:namedview
     id="base"
     pagecolor="#ffffff"
     bordercolor="#666666"
     borderopacity="1.0"
     inkscape:pageopacity="0.0"
     inkscape:pageshadow="2"
     inkscape:zoom="0.35"
     inkscape:cx="-860.09476"
     inkscape:cy="-335.35805"
     inkscape:document-units="px"
     inkscape:current-layer="layer1"
     showgrid="false"
     fit-margin-top="0"
     fit-margin-left="0"
     fit-margin-right="0"
     fit-margin-bottom="0"
     inkscape:window-width="1920"
     inkscape:window-height="1056"
     inkscape:window-x="0"
     inkscape:window-y="24"
     inkscape:window-maximized="1" />
  <metadata
     id="metadata26834">
    <rdf:RDF>
      <cc:Work
         rdf:about="">
        <dc:format>image/svg+xml</dc:format>
        <dc:type
           rdf:resource="http://purl.org/dc/dcmitype/StillImage" />
        <dc:title></dc:title>
      </cc:Work>
    </rdf:RDF>
  </metadata>
  <g
     inkscape:label="Capa 1"
     inkscape:groupmode="layer"
     id="layer1"
     transform="translate(-443.66619,264.99492)">
    <path
       inkscape:connector-curvature="0"
       style="color:#000000;font-style:normal;font-variant:normal;font-weight:normal;font-stretch:normal;font-size:medium;line-height:normal;font-family:sans-serif;text-indent:0;text-align:start;text-decoration:none;text-decoration-line:none;text-decoration-style:solid;text-decoration-color:#000000;letter-spacing:normal;word-spacing:normal;text-transform:none;direction:ltr;writing-mode:lr-tb;baseline-shift:baseline;text-anchor:start;white-space:normal;clip-rule:nonzero;display:inline;overflow:visible;visibility:visible;opacity:1;isolation:auto;mix-blend-mode:normal;color-interpolation:sRGB;color-interpolation-filters:linearRGB;solid-color:#000000;solid-opacity:1;fill:url(#linearGradient58344);fill-opacity:1;fill-rule:evenodd;stroke:none;stroke-width:0.99999994;stroke-linecap:butt;stroke-linejoin:miter;stroke-miterlimit:4;stroke-dasharray:none;stroke-dashoffset:0;stroke-opacity:1;color-rendering:auto;image-rendering:auto;shape-rendering:auto;text-rendering:auto;enable-background:accumulate"
       d="m 524.19159,-264.99492 c -1.0239,0 -2.0475,0.39123 -2.8281,1.17188 -1.5613,1.56132 -1.5613,4.09496 0,5.65625 1.44,1.43998 3.699,1.5346 5.2676,0.31835 l 24.0058,24.00586 0,66.58399 -23.1191,23.11914 c -1.5687,-1.21704 -3.8273,-1.12388 -5.2676,0.31641 -1.5613,1.56132 -1.5613,4.09496 0,5.65625 1.5613,1.56128 4.0969,1.56128 5.6582,0 1.4408,-1.44079 1.5348,-3.70085 0.3164,-5.26954 l 23.4082,-23.4082 0,-67.41211 -24.293,-24.30078 c 1.2157,-1.56857 1.1214,-3.82586 -0.3183,-5.26562 -0.7807,-0.78065 -1.8062,-1.17188 -2.8301,-1.17188 z m -0.6582,83 c -1.0239,0 -2.0475,0.39123 -2.8281,1.17188 -1.4402,1.44012 -1.535,3.69896 -0.3184,5.26757 l -24.2949,24.29493 0,267.00195 -23.1211,23.11523 c -1.5685,-1.21446 -3.8263,-1.11901 -5.2656,0.32032 -1.5613,1.56132 -1.5613,4.09496 0,5.65625 1.5613,1.56128 4.0969,1.56128 5.6582,0 1.4408,-1.44079 1.5348,-3.70085 0.3164,-5.26954 l 23.4082,-23.4082 0,-267.00391 24.0078,-24 c 1.5686,1.21564 3.8278,1.12141 5.2676,-0.31835 1.5613,-1.56129 1.5613,-4.09497 0,-5.65625 -0.7807,-0.78065 -1.8062,-1.17188 -2.8301,-1.17188 z m -52.4277,270.999995 c -1.0239,0 -2.0475,0.39123 -2.8282,1.17188 -1.4397,1.43976 -1.534,3.69705 -0.3183,5.26562 l -24.293,24.300785 0,47.41406 23.4082,23.40821 c -1.2174,1.56864 -1.124,3.82715 0.3164,5.26758 1.5613,1.56128 4.095,1.56128 5.6563,0 1.5613,-1.56129 1.5613,-4.09497 0,-5.65625 -1.4405,-1.44043 -3.699,-1.53382 -5.2676,-0.31641 l -23.1172,-23.11719 0,-46.58789 24.0039,-24.003915 c 1.5686,1.21662 3.8294,1.12177 5.2695,-0.31835 1.5613,-1.56129 1.5613,-4.09493 0,-5.65625 -0.7806,-0.78065 -1.8061,-1.17188 -2.83,-1.17188 z"
       id="path20503" />
  </g>
</svg>
