<svg xmlns="http://www.w3.org/2000/svg" viewBox="0 0 140 32.3">
  <path class="main-logo-text" d="M102.6 28.7V3.5H120v3.7h-14v7.4h14v3.7h-13.7V25H120v3.7h-16.2zm20 0V3.5h3.6v11h8.2l1.8-1.7v-5h3.7v6.8l-2 2 1.5 1.7V25l-3.8 2v-7l-1.8-1.7h-8v10.5h-2zm-83.6 0v-25h19V29h-3.6V7H42.6v21.6zm40.8-25v25h-19v-25h3.6V25h4V7H72l.2 18h4V3.5zm2.7 25v-25h17.3v3.6H86.2v7.4h13.6v3.7H86.2V25H100v3.7H83.7z"/>
  <path class="main-logo-icon" d="M15 0C6.5.7 0 8 0 16.4c.3 9 7.5 16 16.4 16 9-.2 16-7.3 16.2-16.2 0-4.5-2-8.8-5.3-12C24 1.2 19.6-.2 15 0zM5 9.6h11v14.2h-2l-.3-12.2H7L7.3 24h-2V11.6L5 10.3zm11.4 0l2-.2.2 12.3H21l-.2-12.3H23v12.2h2.3V9.4h2v14.4H16.7v-2z"/>
</svg>
