<svg xmlns="http://www.w3.org/2000/svg" viewBox="0 0 49.999998 81.3317">
  <path d="M30.077 81.324c-2.322-.107-3.75-.264-5.477-.604-4.124-.81-7.81-2.547-10.54-4.966-.492-.437-1.313-1.262-1.696-1.704-2.14-2.47-2.997-4.712-3.338-8.723-.126-1.485-.124-1.29-.142-16.826l-.018-15.12-4.433-.01L0 33.35V21.78l.635-.226c2.238-.794 4.186-1.78 5.952-3.015 1.846-1.3 3.613-3.02 4.987-4.87 1.605-2.16 2.754-4.47 3.58-7.21.515-1.708 1.01-4.077 1.247-5.97.03-.237.07-.448.09-.47.03-.034 1.2-.04 5.77-.034L28 0l.01 10.29.01 10.286h9.627c8.06 0 9.63.01 9.66.043.027.03.035 1.72.03 6.38l-.01 6.33-9.646.014c-5.3.01-9.65.02-9.65.024v12.11c.015 12.35.015 12.315.138 14.07.125 1.78.336 3.08.618 3.81.507 1.307 1.424 2.35 2.774 3.153s2.75 1.28 4.425 1.51c.613.086 2.276.12 3.045.06 2.753-.2 5.38-.945 8.06-2.285.94-.47 1.776-.944 2.586-1.465.155-.1.295-.175.31-.17.013.01.024 2.88.024 6.37v6.354l-.076.05c-.243.16-2.64 1.2-3.785 1.645-4.33 1.676-7.68 2.413-12.25 2.692-.528.033-3.366.065-3.818.044z"/>
</svg>
