<svg xmlns="http://www.w3.org/2000/svg" viewBox="0 0 318.70001 259.09332">
  <path d="M100.2 259.093c120.3 0 186.1-99.7 186.1-186.1 0-2.8 0-5.6-.2-8.5 12.8-9.3 23.8-20.7 32.6-33.9-11.9 5.3-24.6 8.8-37.6 10.3 13.7-8.2 23.9-21 28.8-36.2-12.8 7.6-26.9 13-41.5 15.9-24.8-26.3-66.2-27.6-92.5-2.8-17 16-24.2 39.8-18.9 62.5-52.6-2.6-101.6-27.5-134.8-68.3-17.4 29.9-8.5 68.1 20.2 87.3-10.4-.3-20.6-3.1-29.7-8.2v.8c0 31.1 22 57.9 52.5 64.1-9.6 2.6-19.7 3-29.5 1.1 8.6 26.6 33.1 44.9 61.1 45.4-23.2 18.2-51.8 28.1-81.2 28.1-5.2 0-10.4-.3-15.6-.9 29.8 19.2 64.6 29.4 100.2 29.4"/>
</svg>
